<?xml version="1.0" encoding="utf-8"?>
<!-- Designed by Vexels.com - 2017 All Rights Reserved - https://vexels.com/terms-and-conditions/  -->

<svg version="1.1" id="Layer_1" xmlns="http://www.w3.org/2000/svg" xmlns:xlink="http://www.w3.org/1999/xlink" x="0px" y="0px"
	 width="1200px" height="1200px" viewBox="0 0 1200 1200" enable-background="new 0 0 1200 1200" xml:space="preserve">
<g>
	<path fill-rule="evenodd" clip-rule="evenodd" fill="#B2B2B2" d="M947.434,600.305c91.285,7.352,157.571,114.548,148.054,239.432
		c-9.508,124.878-91.234,220.151-182.52,212.798c-91.275-7.352-157.562-114.543-148.045-239.426
		C774.431,688.226,856.148,592.962,947.434,600.305z"/>
	<path fill-rule="evenodd" clip-rule="evenodd" fill="#999A9A" d="M954.102,600.305c87.2,7.352,150.515,114.548,141.426,239.432
		c-9.089,124.878-87.15,220.151-174.34,212.798c-87.201-7.352-150.516-114.543-141.426-239.426
		C788.861,688.226,866.912,592.962,954.102,600.305z"/>
	<path fill-rule="evenodd" clip-rule="evenodd" fill="#3E353A" d="M1001.139,602.613c91.214,6.934,157.47,107.992,147.952,225.727
		c-9.507,117.735-91.173,207.555-182.396,200.621c-91.215-6.929-157.45-107.988-147.942-225.722S909.925,595.684,1001.139,602.613z"
		/>
	<path fill-rule="evenodd" clip-rule="evenodd" fill="#666264" d="M1007.715,602.613c87.19,6.934,150.505,107.992,141.417,225.727
		c-9.089,117.735-87.15,207.555-174.34,200.621c-87.201-6.929-150.516-107.988-141.426-225.722
		C842.454,685.504,920.514,595.684,1007.715,602.613z"/>
	<g>
		<defs>
			<path id="SVGID_1_" d="M1015.507,716.156c44.944,3.574,77.581,55.665,72.904,116.366
				c-4.687,60.681-44.933,106.987-89.876,103.418c-44.944-3.569-77.591-55.667-72.904-116.367
				C930.318,758.893,970.554,712.587,1015.507,716.156z"/>
		</defs>
		<use xlink:href="#SVGID_1_"  overflow="visible" fill-rule="evenodd" clip-rule="evenodd" fill="#282223"/>
		<clipPath id="SVGID_2_">
			<use xlink:href="#SVGID_1_"  overflow="visible"/>
		</clipPath>
		<g clip-path="url(#SVGID_2_)">
			<path fill-rule="evenodd" clip-rule="evenodd" fill="#838588" d="M1003.845,713.69c41.839,3.569,72.21,55.665,67.849,116.366
				c-4.361,60.68-41.818,106.986-83.647,103.417c-41.839-3.569-72.21-55.676-67.849-116.366
				C924.559,756.427,962.006,710.121,1003.845,713.69z"/>
		</g>
	</g>
	<path fill-rule="evenodd" clip-rule="evenodd" fill="#B2B2B2" d="M1021.95,853.732c-32.576,21.293-79.357,18.3-76.59-31.35
		c0-155.499,43.881-331.906-28.307-472.557C869.046,256.292,802.464,210.482,691.56,198.88
		c-23.651-2.476-167.764-15.696-338.008,57.723c-43.463,18.75,91.745-94.92,272.998-94.92c144.072,0,310.568,0.934,395.87,159.828
		c62.272,115.969,30.135,254.623,27.817,388.66C1049.217,769.58,1068.865,823.081,1021.95,853.732z"/>
	
		<path fill-rule="evenodd" clip-rule="evenodd" fill="#3E353A" stroke="#3E353A" stroke-width="0.1718" stroke-miterlimit="2.6131" d="
		M1035.073,839.277c-32.587,21.293-79.368,18.3-76.601-31.34c0-155.5,43.881-331.912-28.307-472.568
		c-47.996-93.532-153.874-143.392-269.526-143.392c-57.801,0-147.789-9.691-318.023,63.734
		c-43.473,18.754,115.783-108.473,297.047-108.473c144.062,0,310.568,0.924,395.88,159.818
		c62.263,115.978,30.126,254.616,27.808,388.671C1062.329,755.125,1081.977,808.626,1035.073,839.277z"/>
	<path fill-rule="evenodd" clip-rule="evenodd" fill="#838588" d="M1024.187,718.024c19.628,1.562,33.883,24.315,31.841,50.815
		c-2.053,26.51-19.627,46.735-39.244,45.173c-19.628-1.557-33.894-24.315-31.841-50.821
		C986.985,736.687,1004.56,716.467,1024.187,718.024z"/>
	<path fill-rule="evenodd" clip-rule="evenodd" fill="#625C61" d="M1023.962,736.487c12.959,1.027,22.375,16.059,21.017,33.557
		c-1.348,17.499-12.949,30.861-25.918,29.825c-12.96-1.037-22.365-16.049-21.027-33.557
		C999.392,748.804,1010.993,735.451,1023.962,736.487z"/>
	
		<path fill-rule="evenodd" clip-rule="evenodd" fill="#3E353A" stroke="#3E353A" stroke-width="0.1718" stroke-miterlimit="2.6131" d="
		M348.283,243.803c0,0-146.492,77.219-177.323,447.139c99.956-15.416,99.956-15.416,99.956-15.416S237.993,334.23,393.042,235.144
		C375.948,228.536,348.283,243.803,348.283,243.803z"/>
	<g>
		<path fill-rule="evenodd" clip-rule="evenodd" fill="#B2B2B2" d="M168.46,610.001c76.682-9.885,148.759,71.112,160.993,180.927
			c12.223,109.816-40.022,206.855-116.693,216.75c-76.682,9.89-148.748-71.112-160.982-180.926
			C39.543,716.937,91.787,619.892,168.46,610.001z"/>
		<path fill-rule="evenodd" clip-rule="evenodd" fill="#3E353A" d="M178.079,617.079c76.672-9.896,148.748,71.112,160.973,180.926
			c12.234,109.816-40.011,206.856-116.693,216.751c-76.673,9.89-148.748-71.112-160.973-180.927
			C49.152,724.014,101.397,626.974,178.079,617.079z"/>
		<path fill-rule="evenodd" clip-rule="evenodd" fill="#666264" d="M230.65,607.291c76.683-9.896,148.759,71.111,160.994,180.926
			c12.234,109.81-40.011,206.856-116.684,216.741c-76.682,9.885-148.758-71.112-160.993-180.927
			C101.744,714.216,153.978,617.176,230.65,607.291z"/>
	</g>
</g>
</svg>
